<?xml version="1.0" encoding="UTF-8" standalone="no"?> <svg width="64" height="64" viewBox="0 0 64 64" fill="none" xmlns="http://www.w3.org/2000/svg">
<path d="M52.7202 11.2802C49.7725 8.35879 45.7903 6.71973 41.6402 6.71973C37.49 6.71973 33.5078 8.35879 30.5602 11.2802L28.2502 13.5902C27.8749 13.9655 27.6641 14.4745 27.6641 15.0052C27.6641 15.536 27.8749 16.0449 28.2502 16.4202C28.6255 16.7955 29.1344 17.0063 29.6652 17.0063C30.1959 17.0063 30.7049 16.7955 31.0802 16.4202L33.3902 14.1102C35.594 11.9999 38.5367 10.8366 41.5878 10.8697C44.6389 10.9027 47.5558 12.1294 49.7134 14.287C51.871 16.4446 53.0977 19.3615 53.1307 22.4126C53.1638 25.4637 52.0005 28.4064 49.8902 30.6102L47.5802 32.9202C47.2049 33.2955 46.9941 33.8045 46.9941 34.3352C46.9941 34.866 47.2049 35.3749 47.5802 35.7502C47.9555 36.1255 48.4644 36.3363 48.9952 36.3363C49.5259 36.3363 50.0349 36.1255 50.4102 35.7502L52.7202 33.4402C55.6538 30.499 57.3012 26.5144 57.3012 22.3602C57.3012 18.2061 55.6538 14.2215 52.7202 11.2802V11.2802Z" fill="black"/>
<path d="M32.9201 47.5802L30.6101 49.8902C19.2301 60.4002 3.61006 44.7902 14.1101 33.3902L16.4201 31.0802C16.7953 30.7049 17.0062 30.1959 17.0062 29.6652C17.0062 29.1344 16.7953 28.6255 16.4201 28.2502C16.0448 27.8749 15.5358 27.6641 15.0051 27.6641C14.4743 27.6641 13.9653 27.8749 13.5901 28.2502L11.2801 30.5602C8.38068 33.5069 6.76318 37.48 6.77991 41.6139C6.79665 45.7478 8.44627 49.7077 11.3694 52.6308C14.2926 55.554 18.2524 57.2036 22.3863 57.2203C26.5203 57.2371 30.4933 55.6196 33.4401 52.7202L35.7501 50.4102C36.1253 50.0349 36.3362 49.5259 36.3362 48.9952C36.3362 48.4644 36.1253 47.9555 35.7501 47.5802C35.3748 47.2049 34.8658 46.9941 34.3351 46.9941C33.8043 46.9941 33.2953 47.2049 32.9201 47.5802V47.5802Z" fill="black"/>
<path d="M37.9202 23.2502L23.2502 37.9202C22.8749 38.2955 22.6641 38.8044 22.6641 39.3352C22.6641 39.8659 22.8749 40.3749 23.2502 40.7502C23.6255 41.1255 24.1344 41.3363 24.6652 41.3363C25.1959 41.3363 25.7049 41.1255 26.0802 40.7502L40.7502 26.0802C41.1255 25.7049 41.3363 25.1959 41.3363 24.6652C41.3363 24.1344 41.1255 23.6255 40.7502 23.2502C40.3749 22.8749 39.8659 22.6641 39.3352 22.6641C38.8044 22.6641 38.2955 22.8749 37.9202 23.2502V23.2502Z" fill="black"/>
</svg>
