<svg xmlns="http://www.w3.org/2000/svg" xml:space="preserve" width="1.99999in" height="1.99999in" version="1.1" style="shape-rendering:geometricPrecision; text-rendering:geometricPrecision; image-rendering:optimizeQuality; fill-rule:evenodd; clip-rule:evenodd" viewBox="0 0 2000 2000" xmlns:xlink="http://www.w3.org/1999/xlink">
 <defs>
  <style type="text/css">
   
    .fil0 {fill:none}
    .fil1 {fill:#0B3E3E}
   
  </style>
 </defs>
 <rect class="fil0" width="2000" height="2000" id="id_101"></rect>
 <g id="Layer_x0020_1">
  <metadata id="CorelCorpID_0Corel-Layer"></metadata>
  <path class="fil1" d="M1133 1774l-266 0c-44,0 -77,-34 -77,-77l0 -176c-54,-23 -99,-49 -136,-78l-154 87c-37,22 -82,10 -104,-30l-133 -226c-21,-36 -10,-86 26,-107l155 -88c-6,-62 -7,-96 0,-158l-155 -88c-57,-33 -31,-107 -26,-107l133 -226c22,-40 67,-52 104,-30l154 87c37,-29 82,-55 136,-78l0 -176c0,-43 33,-77 77,-77l266 0c43,0 77,34 77,77l0 176c54,23 99,49 136,78l154 -87c37,-22 82,-10 104,30l133 226c20,36 10,86 -27,107l-154 88c6,63 6,96 0,158l155 88c57,32 31,107 26,107l-133 226c-22,40 -66,51 -103,30l-154 -88c-38,30 -82,56 -136,79l0 176c-1,43 -35,77 -78,77zm-477 -1321c-9,0 -18,-5 -23,-14l-80 -136c-17,-31 29,-57 46,-27l80 137c11,18 -3,40 -23,40zm-323 584l-160 0c-36,0 -36,-54 0,-54l160 0c35,0 35,54 0,54zm263 710c-20,0 -33,-22 -23,-40l80 -136c18,-31 64,-4 46,26l-80 137c-5,9 -14,13 -23,13zm828 -10c-9,0 -18,-4 -23,-13l-80 -137c-18,-30 28,-57 46,-26l80 136c10,19 -4,40 -23,40zm403 -720l-160 0c-35,0 -35,-54 0,-54l160 0c36,0 36,54 0,54zm-503 -574c-20,0 -34,-22 -23,-40l80 -137c17,-30 63,-4 46,27l-80 136c-5,9 -14,14 -23,14zm-444 743c-96,-31 -68,-173 27,-173 97,0 127,142 26,173l0 51c0,45 -35,80 -80,80l-78 0c238,167 591,23 611,-290l-226 0c-39,0 -30,48 -30,84 99,33 74,183 -27,183 -106,0 -129,-153 -26,-183l0 -54c0,-47 36,-84 83,-84l226 0c-13,-195 -164,-346 -359,-359l0 139c103,29 78,180 -27,180 -105,0 -130,-151 -27,-180l0 -139c-172,11 -310,131 -349,293l93 0c12,-39 47,-67 89,-67 49,0 91,43 91,93 0,51 -42,94 -91,94 -42,0 -77,-29 -89,-67l-102 0c-11,115 26,224 99,304l139 0c35,0 27,-42 27,-78zm27 -119c-41,0 -47,70 0,70 50,0 44,-70 0,-70zm-218 246c-4,-2 -7,-5 -9,-9 -78,-82 -120,-189 -120,-304 0,-21 0,-62 7,-81 16,-87 57,-167 121,-231 171,-171 453,-171 624,0 171,171 171,453 0,624 -171,171 -451,171 -623,1zm117 -420c-52,0 -52,80 0,80 48,0 48,-80 0,-80zm297 267c-52,0 -52,80 0,80 48,0 48,-80 0,-80zm-103 -357c-56,0 -50,77 0,77 50,0 56,-77 0,-77zm-344 581c7,0 13,2 18,6 39,34 89,63 153,89 10,4 16,14 16,25l0 193c0,16 12,24 24,24l266 0c12,0 24,-8 24,-24l0 -193c0,-11 6,-21 16,-25 64,-26 114,-55 153,-89 9,-7 21,-8 31,-3l170 97c13,7 24,2 31,-11l133 -226c6,-10 4,-28 -7,-34l-170 -97c-9,-5 -14,-15 -13,-26 8,-78 10,-101 0,-180 -2,-11 4,-21 13,-26l170 -97c10,-6 13,-23 7,-34l-133 -226c-7,-13 -18,-18 -31,-11l-170 97c-10,6 -22,4 -31,-3 -39,-34 -89,-63 -153,-89 -10,-4 -16,-14 -16,-25l0 -193c0,-16 -12,-24 -24,-24l-266 0c-12,0 -24,8 -24,24l0 193c0,11 -6,21 -16,25 -64,26 -114,55 -153,89 -9,7 -21,8 -31,3l-170 -97c-13,-7 -24,-2 -31,11l-133 226c-6,10 -4,28 7,34l170 97c9,5 14,15 13,26 -8,78 -10,101 0,180 2,11 -4,21 -13,26l-170 97c-10,6 -13,23 -7,34l133 226c7,13 18,18 31,11l170 -97c4,-2 9,-3 13,-3z" id="id_102" style="fill: rgb(52, 68, 92);"></path>
 </g>
</svg>