<svg id="Layer_1" data-name="Layer 1" xmlns="http://www.w3.org/2000/svg" viewBox="0 0 128 128"><defs><style>.cls-1{fill:#2d3e50;}.cls-2{fill:#2e79bd;}</style></defs><title>x</title><path class="cls-1" d="M64,3.76636A60.23364,60.23364,0,1,0,124.23364,64,60.30026,60.30026,0,0,0,64,3.76636Zm0,108.65421A48.42057,48.42057,0,1,1,112.42057,64,48.47422,48.47422,0,0,1,64,112.42057Z" id="id_101"></path><path class="cls-1" d="M65.02467,37.48595q.8367.10006,1.66129.25466l4.41092-8.28527v-.00605c-.08791-.01821-.17582-.0364-.26374-.05155-.1152-.02424-.23342-.0485-.35165-.06972-.03031-.00607-.06367-.01212-.094-.01515-.1637-.03336-.32741-.06063-.49111-.08489-.1243-.02426-.24859-.04546-.37591-.06365-.10915-.01819-.21828-.0364-.32741-.04852-.1728-.02727-.34864-.05153-.52445-.07579-.11217-.01515-.22737-.03031-.34257-.04245-.18494-.02424-.36683-.04546-.55175-.06365-.10612-.01214-.21525-.02426-.32438-.03033-.16977-.01819-.33953-.03638-.5093-.04546-.10308-.01214-.20918-.02122-.31226-.02729q-.36378-.02728-.72756-.04546c-.03638-.003-.07275-.00607-.10612-.00607-.29405-.01515-.59116-.02729-.88521-.03334-.30316-.0091-.60631-.01214-.90947-.01214A35.25322,35.25322,0,0,0,40.86918,90.602l.003-.003L43.061,88.08273c-.21221-.21525-.41836-.43048-.6245-.65179a34.28694,34.28694,0,0,1-2.75568-3.33472,31.81121,31.81121,0,0,1-2.65262-4.42911,29.5059,29.5059,0,0,1-1.86745-4.74742,28.23149,28.23149,0,0,1-1.04589-4.92629c-.04243-.41532-.12125-.82459-.13642-1.243l-.08487-1.246c-.01819-.41532-.0091-.83368-.01819-1.246,0-.20918-.0091-.41532-.00607-.62147l.03033-.62149c.02424-.41532.02424-.82761.06669-1.2399l.12127-1.23081c.11822-.81549.22433-1.62795.40318-2.42525A28.75,28.75,0,0,1,35.858,55.454a30.554,30.554,0,0,1,2.10391-4.31694,29.04413,29.04413,0,0,1,6.06616-7.206A28.36413,28.36413,0,0,1,51.895,39.18968a27.18779,27.18779,0,0,1,13.1297-1.70374Z" id="id_102"></path><path class="cls-1" d="M78.75132,32.23476a3.02551,3.02551,0,0,0-1.69713-.26028,3.08615,3.08615,0,0,0-2.2711,1.55934L62.519,54.75087l-.53489.11607a9.23844,9.23844,0,0,0-6.51251,5.2213,9.38708,9.38708,0,1,0,16.78559-.47444l-.25871-.48169,8.36548-23.0302A3.136,3.136,0,0,0,78.75132,32.23476Z" id="id_103"></path><path class="cls-2" d="M92.67149,51.96623a3.473,3.473,0,0,0,.98818-.72977,4.28025,4.28025,0,1,0-6.05317.01821A4.23545,4.23545,0,0,0,92.67149,51.96623Z" id="id_104" style="fill: rgb(235, 160, 9);"></path><path class="cls-2" d="M98.90619,65.32749a3.67306,3.67306,0,0,0-3.61182-2.97,3.73254,3.73254,0,0,0-.69661.066,3.61436,3.61436,0,0,0-2.3388,1.54716A3.684,3.684,0,0,0,91.6938,66.732l.0003.00118a3.64381,3.64381,0,0,0,3.248,2.94275l.042.00533a2.86194,2.86194,0,0,0,1.01338-.04441A3.67938,3.67938,0,0,0,98.90619,65.32749Z" id="id_105" style="fill: rgb(232, 157, 7);"></path><path class="cls-2" d="M90.14062,81.21317a3.00528,3.00528,0,0,0-1.19782-.249,3.08842,3.08842,0,0,0-2.82758,1.866l-.00118.00207a3.03634,3.03634,0,0,0,.86151,3.54817l.06365.056a2.27288,2.27288,0,0,0,.68329.41536,3.06762,3.06762,0,1,0,2.41814-5.63859Z" id="id_106" style="fill: rgb(232, 156, 5);"></path></svg>